# xmcd
#
# Track frame offsets:
#	150
#	15705
#	28609
#	42984
#	58046
#	74963
#	88002
#	105652
#	117336
#	129801
#	144525
#	159560
#
# Disc length: 2333 seconds
#
# Revision: 0
# Processed by: cddbd v1.5.2PL0 Copyright (c) Steve Scherf et al.
# Submitted via: EasyCDDAExtractor 4.6.0.1
#
DISCID=a7091b0c
DTITLE=Leo Nelson - Under Neon Lights
DYEAR=1995
DGENRE=Country
TTITLE0=Kickin' Dirt
TTITLE1=Turn Me Loose
TTITLE2=Comin' Up Zero
TTITLE3=Helen's Arms
TTITLE4=The Right To Be Wrong
TTITLE5=I'll Never Write This Song Again
TTITLE6=Mama Did Raise One Fool After All
TTITLE7=Nobody's Business
TTITLE8=My Home Away From Home (It's As Country As Can Be)
TTITLE9=I Never Thought That Song Would Come True
TTITLE10=Me In Jeans And My Old Broken Heart
TTITLE11=Under Neon Lights
EXTD=
EXTT0=
EXTT1=
EXTT2=
EXTT3=
EXTT4=
EXTT5=
EXTT6=
EXTT7=
EXTT8=
EXTT9=
EXTT10=
EXTT11=
PLAYORDER=
